<?xml version="1.0" encoding="iso-8859-1"?>
<!DOCTYPE svg PUBLIC "-//W3C//DTD SVG 1.1//EN" "http://www.w3.org/Graphics/SVG/1.1/DTD/svg11.dtd">
<svg 
 version="1.1" xmlns="http://www.w3.org/2000/svg" xmlns:xlink="http://www.w3.org/1999/xlink" x="0px" y="0px" width="512px"
	 height="512px" viewBox="0 0 512 512" style="enable-background:new 0 0 512 512;" xml:space="preserve"
><g id="9f7e7d65bebc9157b4431a86ec16f1d6"><g></g><g fill="#2b59a2"><path style="display: inline;" d="M482.808,141.498h0.304v351.076c0,10.409-8.517,18.926-18.926,18.926H104.593
		c-10.409,0-18.926-8.517-18.926-18.926v-79.012h37.852v60.086H445.26V151.907H359.15c-15.097,0-27.446-12.354-27.446-27.446V38.352
		H123.519v170.333H85.667V19.426c0-10.409,8.517-18.926,18.926-18.926h236.101v0.066c3.017,0.277,6.587,2.24,10.421,6.07
		l125.86,125.861C480.221,135.743,482.128,138.804,482.808,141.498z M28.889,375.711V246.537c0-10.409,8.517-18.926,18.926-18.926
		H350.63c10.409,0,18.926,8.517,18.926,18.926v129.174c0,10.408-8.517,18.925-18.926,18.925H47.814
		C37.405,394.636,28.889,386.119,28.889,375.711z M275.122,266.546c0,2.214,0.499,4.069,1.501,5.578
		c0.998,1.501,2.358,2.255,4.088,2.255h20.031v78.461c0,1.738,0.861,3.105,2.588,4.111c1.726,1.005,3.814,1.504,6.269,1.504
		c2.358,0,4.429-0.499,6.199-1.504c1.771-1.006,2.658-2.373,2.658-4.111v-78.461h19.894c1.727,0,3.087-0.772,4.089-2.321
		c0.998-1.553,1.497-3.386,1.497-5.512c0-2.036-0.477-3.825-1.431-5.378c-0.954-1.549-2.34-2.322-4.155-2.322h-57.639
		c-1.818,0-3.205,0.773-4.158,2.322C275.599,262.721,275.122,264.51,275.122,266.546z M223.479,308.582l-23.576,38.426
		c-0.729,1.274-1.091,2.365-1.091,3.271c0,2.362,1.298,4.429,3.886,6.199c2.591,1.774,5.156,2.661,7.699,2.661
		c2.182,0,3.815-0.953,4.905-2.864l19.895-35.021l20.031,35.021c0.998,1.911,2.591,2.864,4.769,2.864
		c2.636,0,5.223-0.887,7.77-2.661c2.54-1.771,3.815-3.837,3.815-6.199c0-0.998-0.322-2.089-0.954-3.271l-23.576-38.426l22.76-38.291
		c0.816-1.361,1.223-2.633,1.223-3.814c0-2.271-1.205-4.226-3.607-5.863c-2.41-1.634-4.976-2.451-7.699-2.451
		c-2.547,0-4.543,1.275-5.996,3.818l-18.534,33.383l-18.53-33.383c-1.364-2.543-3.319-3.818-5.859-3.818
		c-2.728,0-5.293,0.817-7.699,2.451c-2.41,1.638-3.611,3.593-3.611,5.863c0,1.182,0.406,2.453,1.227,3.814L223.479,308.582z
		 M132.996,352.869c0,1.723,0.772,3.091,2.318,4.089c1.541,0.998,3.359,1.497,5.448,1.497h48.513c1.814,0,3.201-0.772,4.154-2.318
		c0.954-1.545,1.431-3.312,1.431-5.314c0-2.178-0.499-4.037-1.497-5.586c-1.002-1.541-2.365-2.317-4.088-2.317H150.71v-27.388
		h20.715c1.815,0,3.201-0.701,4.155-2.11c0.953-1.412,1.43-2.976,1.43-4.702c0-1.907-0.499-3.563-1.497-4.975
		c-1.001-1.405-2.365-2.115-4.088-2.115H150.71v-27.25h38.565c1.723,0,3.086-0.77,4.088-2.318c0.998-1.541,1.497-3.404,1.497-5.584
		c0-1.996-0.477-3.771-1.431-5.316c-0.953-1.545-2.34-2.314-4.154-2.314h-48.513c-2.089,0-3.907,0.5-5.448,1.498
		c-1.546,1.002-2.318,2.361-2.318,4.088V352.869z M54.509,266.546c0,2.214,0.495,4.069,1.497,5.578
		c0.998,1.501,2.362,2.255,4.089,2.255h20.031v78.461c0,1.738,0.861,3.105,2.587,4.111c1.727,1.005,3.818,1.504,6.27,1.504
		c2.362,0,4.429-0.499,6.203-1.504c1.771-1.006,2.653-2.373,2.653-4.111v-78.461h19.898c1.723,0,3.087-0.772,4.085-2.321
		c1.001-1.553,1.5-3.386,1.5-5.512c0-2.036-0.477-3.825-1.43-5.378c-0.954-1.549-2.34-2.322-4.155-2.322H60.095
		c-1.818,0-3.201,0.773-4.155,2.322C54.985,262.721,54.509,264.51,54.509,266.546z"></path></g></g></svg>