<?xml version="1.0" encoding="iso-8859-1"?>
<!DOCTYPE svg PUBLIC "-//W3C//DTD SVG 1.1//EN" "http://www.w3.org/Graphics/SVG/1.1/DTD/svg11.dtd">
<svg 
 version="1.1" xmlns="http://www.w3.org/2000/svg" xmlns:xlink="http://www.w3.org/1999/xlink" x="0px" y="0px" width="512px"
	 height="512px" viewBox="0 0 512 512" style="enable-background:new 0 0 512 512;" xml:space="preserve"
><g id="afcae5a789ccd549f9c6e2a2f80a8f57"><g></g><g fill="#2b59a2"><path style="display: inline;" d="M335.645,256h-0.06c-0.594,17.479-14.911,31.475-32.536,31.475
		c-18.001,0-32.596-14.589-32.596-32.591c0-0.072,0-0.208,0-0.208c0-27.283-23.753-49.014-52.86-49.014h-99.042
		c-29.111,0-53.704,23.051-53.704,50.338c0,27.288,24.593,50.338,53.704,50.338h36.696c0,0,5.14,11.613,19.752,29.528
		c14.095,17.28,34.088,27.813,34.088,27.813h-93.903C52.108,363.68,0.5,315.225,0.5,256s51.608-107.68,114.685-107.68h105.771
		c62.215,0,113.237,47.144,114.621,105.262c0.018,0.436,0.068,0.862,0.068,1.302c0,0.132-0.019,0.255-0.019,0.391
		C335.626,255.52,335.645,255.755,335.645,256z M176.37,256.727c0,0.131-0.019,0.258-0.019,0.39c0,0.44,0.05,0.866,0.068,1.302
		c1.384,58.118,52.406,105.262,114.621,105.262h105.771c63.077,0,114.689-48.455,114.689-107.68s-51.612-107.68-114.689-107.68
		h-93.902c0,0,19.992,10.529,34.088,27.813c14.612,17.91,19.752,29.528,19.752,29.528h36.696c29.111,0,53.7,23.051,53.7,50.338
		c0,27.288-24.589,50.338-53.7,50.338h-99.038c-29.111,0-52.864-21.73-52.864-49.018c0,0,0-0.132,0-0.204
		c0-18.001-14.594-32.591-32.595-32.591c-17.625,0-31.947,13.995-32.537,31.475h-0.059
		C176.351,256.245,176.37,256.481,176.37,256.727z"></path></g></g></svg>