<?xml version="1.0" encoding="iso-8859-1"?>
<!DOCTYPE svg PUBLIC "-//W3C//DTD SVG 1.1//EN" "http://www.w3.org/Graphics/SVG/1.1/DTD/svg11.dtd">
<svg 
 version="1.1" xmlns="http://www.w3.org/2000/svg" xmlns:xlink="http://www.w3.org/1999/xlink" x="0px" y="0px" width="512px"
	 height="512px" viewBox="0 0 512 512" style="enable-background:new 0 0 512 512;" xml:space="preserve"
><g id="7935ec95c421cee6d86eb22ecd14cc82"><g></g><path style="display: inline; fill-rule: evenodd; clip-rule: evenodd;" d="M472.073,95.131H270.197l-31.23-41.639
		c-6.246-8.33-19.869-15.142-30.282-15.142h-75.702c-10.413,0-18.93,8.517-18.93,18.926v37.854v321.737
		c0,10.413-8.517,18.93-18.921,18.93c-10.413,0-18.93-8.517-18.93-18.93V95.131H38.351c-21.687,0-37.851,17.034-37.851,37.852
		l37.851,302.815c0,20.817,17.744,37.852,39.431,37.852h369.843c21.683,0,39.427-17.034,39.427-37.852L511.5,132.982
		C511.5,112.165,493.76,95.131,472.073,95.131z M366.393,311.5v98.274h-65.518V311.5H240.93l92.702-114.643L426.333,311.5H366.393z"></path></g></svg>