<?xml version="1.0" encoding="iso-8859-1"?>
<!DOCTYPE svg PUBLIC "-//W3C//DTD SVG 1.1//EN" "http://www.w3.org/Graphics/SVG/1.1/DTD/svg11.dtd">
<svg 
 version="1.1" xmlns="http://www.w3.org/2000/svg" xmlns:xlink="http://www.w3.org/1999/xlink" x="0px" y="0px" width="512px"
	 height="512px" viewBox="0 0 512 512" style="enable-background:new 0 0 512 512;" xml:space="preserve"
><g id="7935ec95c421cee6d86eb22ecd154396"><g></g><path style="display: inline;" d="M156.166,170.833l98.881,122.287h-63.941v104.824h-69.886V293.12H57.277L156.166,170.833z
		 M454.419,141.498c-0.68-2.694-2.587-5.755-5.833-9.001L322.725,6.636c-3.833-3.829-7.404-5.792-10.42-6.069V0.5H76.204
		c-10.41,0-18.926,8.517-18.926,18.925v113.556h37.852v-94.63h208.186v86.11c0,15.092,12.351,27.446,27.447,27.446h86.109v321.741
		H95.129v-37.852H57.277v56.777c0,10.409,8.517,18.926,18.926,18.926h359.593c10.408,0,18.926-8.517,18.926-18.926V141.498H454.419z
		"></path></g></svg>